<svg width="50" height="50" viewBox="0 0 50 50" fill="none" xmlns="http://www.w3.org/2000/svg">
<g clip-path="url(#clip0_31_7)">
<g filter="url(#filter0_d_31_7)">
<path d="M50 25C50 38.8071 38.8071 50 25 50C11.1929 50 0 38.8071 0 25C0 11.1929 11.1929 0 25 0C38.8071 0 50 11.1929 50 25Z" fill="#001417"/>
<path d="M49.5 25C49.5 38.531 38.531 49.5 25 49.5C11.469 49.5 0.5 38.531 0.5 25C0.5 11.469 11.469 0.5 25 0.5C38.531 0.5 49.5 11.469 49.5 25Z" stroke="#FCEE0A"/>
</g>
<path d="M17.86 12H19.4157H25.1201M25.1201 12V25.4831M25.1201 12H30.306L34.4546 15.6301V22.3716L30.306 25.4831H25.1201M17.86 38.9662H25.1201V25.4831M25.1201 25.4831H13" stroke="#FCEE0A" stroke-width="4.32" stroke-linejoin="bevel"/>
<path d="M13 25.5L25 25.5M17.86 12H25M25 25.5L29.74 25.5L34.6 22.26V15.78L30.28 12H25M25 25.5V12M25 25.5V39L17.86 39" stroke="#001417" stroke-width="1.08" stroke-linejoin="bevel"/>
</g>
<defs>
<filter id="filter0_d_31_7" x="-2" y="0" width="54" height="54" filterUnits="userSpaceOnUse" color-interpolation-filters="sRGB">
<feFlood flood-opacity="0" result="BackgroundImageFix"/>
<feColorMatrix in="SourceAlpha" type="matrix" values="0 0 0 0 0 0 0 0 0 0 0 0 0 0 0 0 0 0 127 0" result="hardAlpha"/>
<feOffset dy="2"/>
<feGaussianBlur stdDeviation="1"/>
<feComposite in2="hardAlpha" operator="out"/>
<feColorMatrix type="matrix" values="0 0 0 0 0 0 0 0 0 0 0 0 0 0 0 0 0 0 0.25 0"/>
<feBlend mode="normal" in2="BackgroundImageFix" result="effect1_dropShadow_31_7"/>
<feBlend mode="normal" in="SourceGraphic" in2="effect1_dropShadow_31_7" result="shape"/>
</filter>
<clipPath id="clip0_31_7">
<rect width="50" height="50" fill="white"/>
</clipPath>
</defs>
</svg>
