<svg width="70" height="70" viewBox="0 0 70 70" fill="none" xmlns="http://www.w3.org/2000/svg">
<g clip-path="url(#clip0_38_11)">
<g>
<path d="M70 35C70 54.33 54.33 70 35 70C15.67 70 0 54.33 0 35C0 15.67 15.67 0 35 0C54.33 0 70 15.67 70 35Z" fill="#001417"/>
<path d="M69.3 35C69.3 53.9434 53.9434 69.3 35 69.3C16.0566 69.3 0.7 53.9434 0.7 35C0.7 16.0566 16.0566 0.7 35 0.7C53.9434 0.7 69.3 16.0566 69.3 35Z"/>
</g>
<path d="M25.004 16.8H27.1821H35.1682M35.1682 16.8V35.6764M35.1682 16.8H42.4284L48.2365 21.8821V31.3203L42.4284 35.6764H35.1682M25.004 54.5527H35.1682V35.6764M35.1682 35.6764H18.2" stroke="#FCEE0A" stroke-width="6.048" stroke-linejoin="bevel"/>
<path d="M18.2 35.7L35 35.7M25.004 16.8H35M35 35.7L41.636 35.7L48.44 31.164V22.092L42.392 16.8H35M35 35.7V16.8M35 35.7V54.6L25.004 54.6" stroke="#001417" stroke-width="1.512" stroke-linejoin="bevel"/>
</g>
<defs>
<clipPath id="clip0_38_11">
<rect width="70" height="70" fill="white"/>
</clipPath>
</defs>
</svg>
